{
  "accessors": [
    {
      "bufferView": 2,
      "componentType": 5126,
      "count": 16841,
      "max": [
        0.21377681195735931,
        1.7932831048965454,
        0.3902268707752228
      ],
      "min": [
        -0.37443244457244873,
        -0.007914312183856964,
        -0.3721327781677246
      ],
      "type": "VEC3"
    },
    {
      "bufferView": 2,
      "byteOffset": 202092,
      "componentType": 5126,
      "count": 16841,
      "max": [
        0.9999285936355591,
        0.9992501735687256,
        0.9999335408210754
      ],
      "min": [
        -0.9999790191650391,
        -0.9999887943267822,
        -0.9999980926513672
      ],
      "type": "VEC3"
    },
    {
      "bufferView": 1,
      "componentType": 5126,
      "count": 16841,
      "max": [
        0.9994999766349792,
        0.9994999766349792
      ],
      "min": [
        0.029100000858306885,
        0.0005000000237487257
      ],
      "type": "VEC2"
    },
    {
      "bufferView": 1,
      "byteOffset": 134728,
      "componentType": 5126,
      "count": 16841,
      "max": [
        0.9994999766349792,
        0.9994999766349792
      ],
      "min": [
        0.029100000858306885,
        0.0005000000237487257
      ],
      "type": "VEC2"
    },
    {
      "bufferView": 1,
      "byteOffset": 269456,
      "componentType": 5126,
      "count": 16841,
      "max": [
        0.9994999766349792,
        0.9994999766349792
      ],
      "min": [
        0.029100000858306885,
        0.0005000000237487257
      ],
      "type": "VEC2"
    },
    {
      "bufferView": 1,
      "byteOffset": 404184,
      "componentType": 5126,
      "count": 16841,
      "max": [
        0.9994999766349792,
        0.9994999766349792
      ],
      "min": [
        0.029100000858306885,
        0.0005000000237487257
      ],
      "type": "VEC2"
    },
    {
      "bufferView": 1,
      "byteOffset": 538912,
      "componentType": 5126,
      "count": 16841,
      "max": [
        0.9994999766349792,
        0.9994999766349792
      ],
      "min": [
        0.029100000858306885,
        0.0005000000237487257
      ],
      "type": "VEC2"
    },
    {
      "bufferView": 1,
      "byteOffset": 673640,
      "componentType": 5126,
      "count": 16841,
      "max": [
        0.9994999766349792,
        0.9994999766349792
      ],
      "min": [
        0.029100000858306885,
        0.0005000000237487257
      ],
      "type": "VEC2"
    },
    {
      "bufferView": 1,
      "byteOffset": 808368,
      "componentType": 5126,
      "count": 16841,
      "max": [
        0.9994999766349792,
        0.9994999766349792
      ],
      "min": [
        0.029100000858306885,
        0.0005000000237487257
      ],
      "type": "VEC2"
    },
    {
      "bufferView": 1,
      "byteOffset": 943096,
      "componentType": 5126,
      "count": 16841,
      "max": [
        0.9994999766349792,
        0.9994999766349792
      ],
      "min": [
        0.029100000858306885,
        0.0005000000237487257
      ],
      "type": "VEC2"
    },
    {
      "bufferView": 1,
      "byteOffset": 1077824,
      "componentType": 5126,
      "count": 16841,
      "max": [
        0.9994999766349792,
        0.9994999766349792
      ],
      "min": [
        0.029100000858306885,
        0.0005000000237487257
      ],
      "type": "VEC2"
    },
    {
      "bufferView": 1,
      "byteOffset": 1212552,
      "componentType": 5126,
      "count": 16841,
      "max": [
        0.9994999766349792,
        0.9994999766349792
      ],
      "min": [
        0.029100000858306885,
        0.0005000000237487257
      ],
      "type": "VEC2"
    },
    {
      "bufferView": 0,
      "componentType": 5125,
      "count": 90012,
      "type": "SCALAR"
    }
  ],
  "asset": {
    "extras": {
      "author": "suasanakreasi (https://sketchfab.com/suasanakreasi)",
      "license": "CC-BY-4.0 (http://creativecommons.org/licenses/by/4.0/)",
      "source": "https://sketchfab.com/3d-models/man-in-black-with-phone-dca24ddb0a9c4a6cbdb92fff30b5f1ae",
      "title": "Man In Black With Phone"
    },
    "generator": "Sketchfab-13.31.0",
    "version": "2.0"
  },
  "bufferViews": [
    {
      "buffer": 0,
      "byteLength": 360048,
      "name": "floatBufferViews",
      "target": 34963
    },
    {
      "buffer": 0,
      "byteLength": 1347280,
      "byteOffset": 360048,
      "byteStride": 8,
      "name": "floatBufferViews",
      "target": 34962
    },
    {
      "buffer": 0,
      "byteLength": 404184,
      "byteOffset": 1707328,
      "byteStride": 12,
      "name": "floatBufferViews",
      "target": 34962
    }
  ],
  "buffers": [
    {
      "byteLength": 2111512,
      "uri": "scene.bin"
    }
  ],
  "images": [
    {
      "uri": "textures/Material_1_baseColor.jpeg"
    }
  ],
  "materials": [
    {
      "doubleSided": true,
      "name": "Material_1",
      "pbrMetallicRoughness": {
        "baseColorTexture": {
          "index": 0
        },
        "metallicFactor": 0.0,
        "roughnessFactor": 0.9302134966129227
      }
    }
  ],
  "meshes": [
    {
      "name": "Mesh1_Material_1_0",
      "primitives": [
        {
          "attributes": {
            "NORMAL": 1,
            "POSITION": 0,
            "TEXCOORD_0": 2,
            "TEXCOORD_1": 3,
            "TEXCOORD_2": 4,
            "TEXCOORD_3": 5,
            "TEXCOORD_4": 6,
            "TEXCOORD_5": 7,
            "TEXCOORD_6": 8,
            "TEXCOORD_7": 9,
            "TEXCOORD_8": 10,
            "TEXCOORD_9": 11
          },
          "indices": 12,
          "material": 0,
          "mode": 4
        }
      ]
    }
  ],
  "nodes": [
    {
      "children": [
        1
      ],
      "matrix": [
        1.0,
        0.0,
        0.0,
        0.0,
        0.0,
        2.220446049250313e-16,
        -1.0,
        0.0,
        0.0,
        1.0,
        2.220446049250313e-16,
        0.0,
        0.0,
        0.0,
        0.0,
        1.0
      ],
      "name": "Sketchfab_model"
    },
    {
      "children": [
        2
      ],
      "matrix": [
        0.009999999776482582,
        0.0,
        0.0,
        0.0,
        0.0,
        0.0,
        0.009999999776482582,
        0.0,
        0.0,
        -0.009999999776482582,
        0.0,
        0.0,
        0.0,
        0.0,
        0.0,
        1.0
      ],
      "name": "man in black with phone.fbx"
    },
    {
      "children": [
        3
      ],
      "name": "RootNode"
    },
    {
      "children": [
        4
      ],
      "name": "Model"
    },
    {
      "children": [
        5
      ],
      "name": "Assembly_4"
    },
    {
      "children": [
        6
      ],
      "name": "RP_Man_Tyrone_0334_30k"
    },
    {
      "children": [
        7
      ],
      "name": "Group1"
    },
    {
      "children": [
        8
      ],
      "name": "G_3DGeom_1"
    },
    {
      "children": [
        9
      ],
      "name": "Mesh1"
    },
    {
      "mesh": 0,
      "name": "Mesh1_Material_1_0"
    }
  ],
  "samplers": [
    {
      "magFilter": 9729,
      "minFilter": 9987,
      "wrapS": 10497,
      "wrapT": 10497
    }
  ],
  "scene": 0,
  "scenes": [
    {
      "name": "Sketchfab_Scene",
      "nodes": [
        0
      ]
    }
  ],
  "textures": [
    {
      "sampler": 0,
      "source": 0
    }
  ]
}
